<svg width="230" height="42" viewBox="0 0 230 42" fill="none" xmlns="http://www.w3.org/2000/svg">
<path d="M23.4235 10.4139C23.4235 10.4139 23.8522 8.68005 24.9574 7.66037C26.0694 6.6345 26.7771 6.35522 26.7771 6.35522C26.7771 6.35522 26.3105 5.58355 26.3105 4.78315C26.3105 3.98275 26.8152 2.50596 26.8152 2.50596C26.8152 2.50596 25.4385 3.01071 24.7097 3.7922C24.0522 4.49732 23.7475 5.27845 23.7475 5.27845L23.5664 5.13553C23.5664 5.13553 22.8518 5.97411 22.8518 7.46036C22.8518 8.9466 23.4235 10.4139 23.4235 10.4139Z" fill="#CBCB2B"/>
<path d="M30.4805 14.4883C30.4805 14.4883 31.7678 13.2501 32.098 11.7831C32.4304 10.3071 32.3187 9.55431 32.3187 9.55431C32.3187 9.55431 33.2206 9.57286 33.9134 9.17284C34.6065 8.77246 35.6331 7.59677 35.6331 7.59677C35.6331 7.59677 35.8844 9.04156 35.572 10.0634C35.2901 10.9853 34.7661 11.6402 34.7661 11.6402L34.9803 11.7253C34.9803 11.7253 34.6116 12.7635 33.3242 13.5065C32.0369 14.2498 30.4805 14.4883 30.4805 14.4883Z" fill="#CBCB2B"/>
<path d="M23.252 1.18152C22.8804 0.733864 22.3087 1.43051e-05 22.3087 1.43051e-05C22.3087 1.43051e-05 21.7371 0.733864 21.3654 1.18152C20.9942 1.62918 20.2698 2.3343 20.2698 2.8965C20.2698 3.45871 21.1847 3.83982 21.6894 4.25911C22.1945 4.67803 22.3087 5.20206 22.3087 5.20206C22.3087 5.20206 22.4233 4.67803 22.928 4.25911C23.4331 3.83982 24.3477 3.45871 24.3477 2.8965C24.3477 2.3343 23.6237 1.62918 23.252 1.18152Z" fill="#F89821"/>
<path d="M34.7369 4.2377L34.2962 4.46753C34.2962 4.46753 34.3348 3.2573 34.1013 2.59472C33.8678 1.93178 33.5027 1.19248 33.5027 1.19248C33.5027 1.19248 32.6798 1.24557 31.9892 1.37503C31.2983 1.50413 30.2699 2.1427 30.2699 2.1427L30.2484 1.64632C30.2484 1.64632 28.64 2.4118 28.0302 3.46821C27.4203 4.52426 27.9778 6.18833 27.9778 6.18833C27.9778 6.18833 28.5571 5.64249 29.5706 5.25956C30.5837 4.87627 31.1397 5.28538 31.1397 5.28538C31.1397 5.28538 31.7718 5.56212 31.9467 6.63126C32.1216 7.7004 31.9387 8.47498 31.9387 8.47498C31.9387 8.47498 33.6584 8.12551 34.2682 7.06946C34.878 6.01341 34.7369 4.2377 34.7369 4.2377Z" fill="#FFCD08"/>
<path d="M31.2432 10.6699C31.2585 10.4147 31.2789 10.0747 31.2789 10.0747L30.8581 10.1176C30.8581 10.1176 31.1967 9.16952 31.1581 8.53059C31.0843 7.3069 30.5239 6.51123 30.4774 6.44686L30.4788 6.44395C30.4788 6.44395 30.4759 6.44359 30.4748 6.44359C30.4745 6.44286 30.4727 6.44031 30.4727 6.44031L30.4712 6.44322C30.3919 6.43486 29.4225 6.34758 28.3261 6.89524C27.7533 7.18144 27.1017 7.94874 27.1017 7.94874L26.9286 7.56254C26.9286 7.56254 26.6442 7.75055 26.4307 7.89128C26.2173 8.03238 25.7118 8.4884 25.4907 9.32916C25.2696 10.1696 25.7253 10.8285 25.7253 10.8285C25.7253 10.8285 26.3475 10.1317 27.0137 9.70227C27.6537 9.28916 28.4755 9.75355 28.5384 9.79028V9.79064C28.5384 9.79064 28.541 9.79173 28.5417 9.79209C28.5424 9.79246 28.5446 9.79391 28.5446 9.79391C28.6083 9.83028 29.421 10.3096 29.3835 11.0707C29.3446 11.8624 29.0523 12.7497 29.0523 12.7497C29.0523 12.7497 29.8512 12.8148 30.4683 12.2027C31.0854 11.5911 31.228 10.9252 31.2432 10.6699Z" fill="#A9258A"/>
<path d="M21.1418 10.4139C21.1418 10.4139 20.713 8.68005 19.6079 7.66037C18.4958 6.6345 17.7882 6.35522 17.7882 6.35522C17.7882 6.35522 18.2547 5.58355 18.2547 4.78315C18.2547 3.98275 17.75 2.50596 17.75 2.50596C17.75 2.50596 19.1268 3.01071 19.8555 3.7922C20.513 4.49732 20.8178 5.27845 20.8178 5.27845L20.9989 5.13553C20.9989 5.13553 21.7134 5.97411 21.7134 7.46036C21.7134 8.9466 21.1418 10.4139 21.1418 10.4139Z" fill="#CBCB2B"/>
<path d="M14.0847 14.4883C14.0847 14.4883 12.7973 13.2501 12.4671 11.7831C12.1348 10.3071 12.2464 9.55431 12.2464 9.55431C12.2464 9.55431 11.3446 9.57286 10.6518 9.17284C9.95869 8.77246 8.93211 7.59677 8.93211 7.59677C8.93211 7.59677 8.68083 9.04156 8.9932 10.0634C9.27503 10.9853 9.79905 11.6402 9.79905 11.6402L9.58486 11.7253C9.58486 11.7253 9.9536 12.7635 11.2409 13.5065C12.5282 14.2498 14.0847 14.4883 14.0847 14.4883Z" fill="#CBCB2B"/>
<path d="M9.82821 4.2377L10.269 4.46753C10.269 4.46753 10.2304 3.2573 10.4639 2.59472C10.6973 1.93178 11.0624 1.19248 11.0624 1.19248C11.0624 1.19248 11.8854 1.24557 12.576 1.37503C13.2669 1.50413 14.2953 2.1427 14.2953 2.1427L14.3168 1.64632C14.3168 1.64632 15.9252 2.4118 16.5351 3.46821C17.1449 4.52426 16.5874 6.18833 16.5874 6.18833C16.5874 6.18833 16.0081 5.64249 14.9946 5.25956C13.9815 4.87627 13.4255 5.28538 13.4255 5.28538C13.4255 5.28538 12.7934 5.56212 12.6185 6.63126C12.4436 7.7004 12.6265 8.47498 12.6265 8.47498C12.6265 8.47498 10.9068 8.12551 10.297 7.06946C9.68711 6.01341 9.82821 4.2377 9.82821 4.2377Z" fill="#FFCD08"/>
<path d="M13.3219 10.6699C13.3066 10.4147 13.2863 10.0747 13.2863 10.0747L13.707 10.1176C13.707 10.1176 13.3684 9.16952 13.407 8.53059C13.4808 7.3069 14.0412 6.51123 14.0878 6.44686L14.0863 6.44395C14.0863 6.44395 14.0892 6.44359 14.0903 6.44359C14.0907 6.44286 14.0925 6.44031 14.0925 6.44031L14.0939 6.44322C14.1732 6.43486 15.1427 6.34758 16.2392 6.89524C16.8119 7.18144 17.4636 7.94874 17.4636 7.94874L17.6367 7.56254C17.6367 7.56254 17.9211 7.75055 18.1346 7.89128C18.348 8.03238 18.8535 8.4884 19.0746 9.32916C19.2957 10.1696 18.8401 10.8285 18.8401 10.8285C18.8401 10.8285 18.2178 10.1317 17.5516 9.70227C16.9116 9.28916 16.0897 9.75355 16.0268 9.79028V9.79064C16.0268 9.79064 16.0242 9.79173 16.0235 9.79209C16.0228 9.79246 16.0206 9.79391 16.0206 9.79391C15.957 9.83028 15.1438 10.3096 15.1816 11.0707C15.2206 11.8624 15.5129 12.7497 15.5129 12.7497C15.5129 12.7497 14.714 12.8148 14.0969 12.2027C13.4797 11.5911 13.3372 10.9252 13.3219 10.6699Z" fill="#A9258A"/>
<path d="M23.7283 31.0571C23.7283 31.0571 24.157 32.791 25.2622 33.8107C26.3742 34.8365 27.0819 35.1158 27.0819 35.1158C27.0819 35.1158 26.6153 35.8875 26.6153 36.6879C26.6153 37.4883 27.1201 38.9651 27.1201 38.9651C27.1201 38.9651 25.7433 38.4603 25.0145 37.6788C24.357 36.9737 24.0523 36.1926 24.0523 36.1926L23.8712 36.3355C23.8712 36.3355 23.1566 35.4969 23.1566 34.0107C23.1566 32.5244 23.7283 31.0571 23.7283 31.0571Z" fill="#CBCB2B"/>
<path d="M30.7854 26.9826C30.7854 26.9826 32.0727 28.2209 32.4029 29.6878C32.7353 31.1639 32.6237 31.9167 32.6237 31.9167C32.6237 31.9167 33.5255 31.8981 34.2183 32.2981C34.9114 32.6985 35.938 33.8742 35.938 33.8742C35.938 33.8742 36.1893 32.4294 35.8769 31.4076C35.5951 30.4857 35.0711 29.8308 35.0711 29.8308L35.2852 29.7457C35.2852 29.7457 34.9165 28.7074 33.6292 27.9645C32.3418 27.2212 30.7854 26.9826 30.7854 26.9826Z" fill="#CBCB2B"/>
<path d="M23.5568 40.2894C23.1851 40.7371 22.6135 41.4709 22.6135 41.4709C22.6135 41.4709 22.0418 40.7371 21.6702 40.2894C21.2989 39.8418 20.5745 39.1367 20.5745 38.5745C20.5745 38.0123 21.4894 37.6312 21.9942 37.2119C22.4993 36.7929 22.6135 36.2689 22.6135 36.2689C22.6135 36.2689 22.728 36.7929 23.2328 37.2119C23.7379 37.6312 24.6525 38.0123 24.6525 38.5745C24.6525 39.1367 23.9285 39.8418 23.5568 40.2894Z" fill="#F89821"/>
<path d="M35.042 37.2333L34.6012 37.0034C34.6012 37.0034 34.6398 38.2137 34.4063 38.8763C34.1728 39.5392 33.8077 40.2781 33.8077 40.2781C33.8077 40.2781 32.9848 40.2254 32.2942 40.0959C31.6033 39.9669 30.5749 39.3283 30.5749 39.3283L30.5534 39.8247C30.5534 39.8247 28.945 39.0592 28.3351 38.0028C27.7253 36.9467 28.2828 35.2826 28.2828 35.2826C28.2828 35.2826 28.8621 35.8285 29.8756 36.2114C30.8887 36.5947 31.4447 36.1856 31.4447 36.1856C31.4447 36.1856 32.0767 35.9089 32.2517 34.8397C32.4266 33.7706 32.2437 32.996 32.2437 32.996C32.2437 32.996 33.9634 33.3451 34.5732 34.4015C35.1831 35.4576 35.042 37.2333 35.042 37.2333Z" fill="#FFCD08"/>
<path d="M31.5483 30.801C31.5635 31.0563 31.5839 31.3963 31.5839 31.3963L31.1631 31.3534C31.1631 31.3534 31.5017 32.3015 31.4632 32.9404C31.3893 34.1641 30.829 34.9598 30.7824 35.0241L30.7839 35.027C30.7839 35.027 30.7809 35.0274 30.7799 35.0274C30.7795 35.0281 30.7777 35.0307 30.7777 35.0307L30.7762 35.0278C30.6969 35.0361 29.7275 35.1234 28.631 34.5757C28.0583 34.2895 27.4066 33.5222 27.4066 33.5222L27.2335 33.9081C27.2335 33.9081 26.9492 33.7204 26.7357 33.5797C26.5222 33.4386 26.0167 32.9826 25.7956 32.1418C25.5745 31.3014 26.0302 30.6425 26.0302 30.6425C26.0302 30.6425 26.6524 31.3392 27.3186 31.7687C27.9586 32.1818 28.7805 31.7174 28.8434 31.6807V31.6803C28.8434 31.6803 28.846 31.6793 28.8467 31.6789C28.8474 31.6785 28.8496 31.6771 28.8496 31.6771C28.9132 31.6407 29.726 31.1614 29.6885 30.4003C29.6496 29.6086 29.3573 28.7213 29.3573 28.7213C29.3573 28.7213 30.1562 28.6562 30.7733 29.2682C31.3904 29.8799 31.533 30.5457 31.5483 30.801Z" fill="#A9258A"/>
<path d="M21.4467 31.0571C21.4467 31.0571 21.018 32.791 19.9128 33.8107C18.8008 34.8365 18.0931 35.1158 18.0931 35.1158C18.0931 35.1158 18.5597 35.8875 18.5597 36.6879C18.5597 37.4883 18.0549 38.9651 18.0549 38.9651C18.0549 38.9651 19.4317 38.4603 20.1605 37.6788C20.818 36.9737 21.1227 36.1926 21.1227 36.1926L21.3038 36.3355C21.3038 36.3355 22.0184 35.4969 22.0184 34.0107C22.0184 32.5244 21.4467 31.0571 21.4467 31.0571Z" fill="#CBCB2B"/>
<path d="M14.3897 26.9826C14.3897 26.9826 13.1024 28.2209 12.7722 29.6878C12.4398 31.1639 12.5514 31.9167 12.5514 31.9167C12.5514 31.9167 11.6495 31.8981 10.9568 32.2981C10.2637 32.6985 9.23705 33.8742 9.23705 33.8742C9.23705 33.8742 8.98576 32.4294 9.29814 31.4076C9.57997 30.4857 10.104 29.8308 10.104 29.8308L9.88981 29.7457C9.88981 29.7457 10.2586 28.7074 11.5459 27.9645C12.8333 27.2212 14.3897 26.9826 14.3897 26.9826Z" fill="#CBCB2B"/>
<path d="M10.1331 37.2333L10.5739 37.0034C10.5739 37.0034 10.5353 38.2137 10.7688 38.8763C11.0023 39.5392 11.3674 40.2781 11.3674 40.2781C11.3674 40.2781 12.1903 40.2254 12.8809 40.0959C13.5718 39.9669 14.6002 39.3283 14.6002 39.3283L14.6217 39.8247C14.6217 39.8247 16.2301 39.0592 16.84 38.0028C17.4498 36.9467 16.8923 35.2826 16.8923 35.2826C16.8923 35.2826 16.313 35.8285 15.2995 36.2114C14.2864 36.5947 13.7304 36.1856 13.7304 36.1856C13.7304 36.1856 13.0984 35.9089 12.9234 34.8397C12.7485 33.7706 12.9314 32.996 12.9314 32.996C12.9314 32.996 11.2117 33.3451 10.6019 34.4015C9.99204 35.4576 10.1331 37.2333 10.1331 37.2333Z" fill="#FFCD08"/>
<path d="M13.6267 30.801C13.6114 31.0563 13.5911 31.3963 13.5911 31.3963L14.0118 31.3534C14.0118 31.3534 13.6733 32.3015 13.7118 32.9404C13.7856 34.1641 14.346 34.9598 14.3926 35.0241L14.3911 35.027C14.3911 35.027 14.394 35.0274 14.3951 35.0274C14.3955 35.0281 14.3973 35.0307 14.3973 35.0307L14.3987 35.0278C14.478 35.0361 15.4475 35.1234 16.5439 34.5757C17.1167 34.2895 17.7684 33.5222 17.7684 33.5222L17.9415 33.9081C17.9415 33.9081 18.2258 33.7204 18.4393 33.5797C18.6528 33.4386 19.1582 32.9826 19.3793 32.1418C19.6004 31.3014 19.1448 30.6425 19.1448 30.6425C19.1448 30.6425 18.5226 31.3392 17.8564 31.7687C17.2163 32.1818 16.3945 31.7174 16.3316 31.6807V31.6803C16.3316 31.6803 16.329 31.6793 16.3283 31.6789C16.3276 31.6785 16.3254 31.6771 16.3254 31.6771C16.2617 31.6407 15.4486 31.1614 15.4864 30.4003C15.5253 29.6086 15.8177 28.7213 15.8177 28.7213C15.8177 28.7213 15.0188 28.6562 14.4016 29.2682C13.7845 29.8799 13.642 30.5457 13.6267 30.801Z" fill="#A9258A"/>
<path d="M31.7083 24.5256C31.7083 24.5256 33.4061 25.0809 34.8564 24.6837C36.3153 24.2841 36.9274 23.8321 36.9274 23.8321C36.9274 23.8321 37.3347 24.6372 38.0132 25.0612C38.6922 25.4852 40.2119 25.8398 40.2119 25.8398C40.2119 25.8398 39.0544 26.7398 38.0056 26.9438C37.059 27.1275 36.235 26.9722 36.235 26.9722L36.2604 27.2013C36.2604 27.2013 35.1706 27.3631 33.9102 26.5755C32.6497 25.7878 31.7083 24.5256 31.7083 24.5256Z" fill="#CBCB2B"/>
<path d="M31.9926 16.3817C31.9926 16.3817 33.725 15.946 35.144 16.4435C36.5717 16.9435 37.151 17.4374 37.151 17.4374C37.151 17.4374 37.6132 16.6628 38.3197 16.2871C39.0263 15.9115 40.5675 15.6638 40.5675 15.6638C40.5675 15.6638 39.4754 14.6853 38.443 14.4085C37.5121 14.1591 36.6789 14.2569 36.6789 14.2569L36.72 14.03C36.72 14.03 35.6444 13.7925 34.3319 14.4903C33.0195 15.1882 31.9926 16.3817 31.9926 16.3817Z" fill="#CBCB2B"/>
<path d="M42.9412 18.2039L42.5128 18.4559C42.5128 18.4559 43.5594 19.0643 43.998 19.6138C44.4362 20.1629 44.8693 20.8644 44.8693 20.8644C44.8693 20.8644 44.3885 21.5339 43.9129 22.0513C43.4372 22.5685 42.3506 23.1027 42.3506 23.1027L42.7604 23.3838C42.7604 23.3838 41.2586 24.342 40.04 24.2994C38.821 24.2569 37.7053 22.9023 37.7053 22.9023C37.7053 22.9023 38.4752 22.7005 39.337 22.0441C40.1989 21.3877 40.1465 20.6993 40.1465 20.6993C40.1465 20.6993 40.2465 20.0167 39.4327 19.3018C38.6188 18.5868 37.865 18.3319 37.865 18.3319C37.865 18.3319 39.0723 17.0584 40.2912 17.1009C41.5102 17.1435 42.9412 18.2039 42.9412 18.2039Z" fill="#FFCD08"/>
<path d="M35.6349 17.7582C35.8592 17.8804 36.1589 18.0433 36.1589 18.0433L35.8992 18.3775C35.8992 18.3775 36.8825 18.5928 37.404 18.964C38.4026 19.675 38.7804 20.5721 38.8103 20.6456L38.8135 20.6459C38.8135 20.6459 38.8121 20.6485 38.8117 20.6492C38.8121 20.6503 38.8132 20.6528 38.8132 20.6528H38.8103C38.7754 20.7245 38.3357 21.5929 37.2898 22.2326C36.744 22.5664 35.7479 22.7126 35.7479 22.7126L35.9836 23.0639C35.9836 23.0639 35.6734 23.2057 35.441 23.3119C35.2083 23.4181 34.5537 23.605 33.7239 23.3471C32.8936 23.0893 32.5762 22.354 32.5762 22.354C32.5762 22.354 33.4969 22.1955 34.2141 21.858C34.9035 21.534 34.9454 20.591 34.9475 20.5179C34.9475 20.5179 34.9475 20.515 34.9475 20.5143C34.9475 20.5136 34.9475 20.511 34.9475 20.511C34.9505 20.4379 34.9748 19.4943 34.3097 19.123C33.6177 18.7364 32.7104 18.5142 32.7104 18.5142C32.7104 18.5142 33.0784 17.8025 33.9242 17.6033C34.7701 17.404 35.4105 17.636 35.6349 17.7582Z" fill="#A9258A"/>
<path d="M6.15524 31.2872C5.58831 31.156 4.67627 30.9738 4.67627 30.9738C4.67627 30.9738 5.07592 30.1337 5.30939 29.601C5.54322 29.0679 5.84905 28.1046 6.35125 27.8525C6.85382 27.6005 7.60476 28.2475 8.20588 28.5108C8.80664 28.7744 9.32666 28.6417 9.32666 28.6417C9.32666 28.6417 8.90919 28.9788 8.76082 29.6181C8.61245 30.2574 8.6819 31.2458 8.17934 31.4978C7.67713 31.7498 6.72218 31.4185 6.15524 31.2872Z" fill="#F89821"/>
<path d="M4.72642 11.9939C4.46823 11.4724 4.03003 10.652 4.03003 10.652C4.03003 10.652 4.93261 10.4277 5.49299 10.2702C6.05301 10.1127 6.99159 9.73745 7.50507 9.96582C8.01891 10.1942 7.99527 11.1848 8.17309 11.8164C8.35128 12.4485 8.78366 12.7656 8.78366 12.7656C8.78366 12.7656 8.25819 12.6572 7.67017 12.9481C7.08178 13.2394 6.36175 13.9202 5.84828 13.6918C5.33481 13.4634 4.98461 12.5154 4.72642 11.9939Z" fill="#F89821"/>
<path d="M40.1006 29.448C40.3326 29.9819 40.729 30.823 40.729 30.823C40.729 30.823 39.8166 31.0019 39.2493 31.1314C38.682 31.2608 37.726 31.5888 37.2242 31.335C36.7227 31.0815 36.7954 30.0931 36.6492 29.4535C36.503 28.8134 36.087 28.4749 36.087 28.4749C36.087 28.4749 36.6063 28.6094 37.2082 28.348C37.8104 28.0869 38.5631 27.4425 39.0646 27.6963C39.5664 27.9498 39.8686 28.9142 40.1006 29.448Z" fill="#F89821"/>
<path d="M39.7144 11.7848C39.9449 11.2506 40.3399 10.4084 40.3399 10.4084C40.3399 10.4084 39.4267 10.2317 38.8591 10.1033C38.2914 9.97491 37.335 9.64944 36.8339 9.904C36.3327 10.1589 36.4076 11.147 36.2629 11.787C36.1182 12.4274 35.7029 12.7667 35.7029 12.7667C35.7029 12.7667 36.2218 12.631 36.8244 12.891C37.427 13.151 38.1812 13.7936 38.6823 13.5391C39.1834 13.2841 39.4838 12.319 39.7144 11.7848Z" fill="#F89821"/>
<path d="M13.1611 24.678C13.1611 24.678 11.4632 25.2333 10.013 24.8362C8.554 24.4369 7.94197 23.9845 7.94197 23.9845C7.94197 23.9845 7.53468 24.7896 6.85611 25.2136C6.17717 25.6377 4.65747 25.9922 4.65747 25.9922C4.65747 25.9922 5.81497 26.8923 6.86375 27.0963C7.81033 27.2799 8.63437 27.1246 8.63437 27.1246L8.60891 27.3537C8.60891 27.3537 9.69877 27.5156 10.9592 26.7279C12.2196 25.9402 13.1611 24.678 13.1611 24.678Z" fill="#CBCB2B"/>
<path d="M12.8768 16.5341C12.8768 16.5341 11.1444 16.0985 9.72539 16.596C8.29769 17.096 7.71839 17.5898 7.71839 17.5898C7.71839 17.5898 7.25619 16.8152 6.54961 16.4396C5.84304 16.0639 4.30188 15.8163 4.30188 15.8163C4.30188 15.8163 5.39393 14.8377 6.42634 14.561C7.35729 14.3115 8.19041 14.4093 8.19041 14.4093L8.14932 14.1824C8.14932 14.1824 9.225 13.9449 10.5374 14.6428C11.8495 15.3406 12.8768 16.5341 12.8768 16.5341Z" fill="#CBCB2B"/>
<path d="M1.92807 18.3564L2.35645 18.6084C2.35645 18.6084 1.30987 19.2168 0.871306 19.7662C0.433107 20.3154 0 21.0168 0 21.0168C0 21.0168 0.480746 21.6863 0.9564 22.2038C1.43205 22.7209 2.51864 23.2551 2.51864 23.2551L2.10881 23.5362C2.10881 23.5362 3.61068 24.4944 4.82928 24.4519C6.04823 24.4094 7.16391 23.0548 7.16391 23.0548C7.16391 23.0548 6.39406 22.8529 5.53221 22.1965C4.67036 21.5401 4.72273 20.8517 4.72273 20.8517C4.72273 20.8517 4.62272 20.1692 5.43657 19.4542C6.25042 18.7393 7.00427 18.4844 7.00427 18.4844C7.00427 18.4844 5.79695 17.2109 4.57799 17.2534C3.35904 17.296 1.92807 18.3564 1.92807 18.3564Z" fill="#FFCD08"/>
<path d="M9.23433 17.9106C9.00996 18.0328 8.71031 18.1957 8.71031 18.1957L8.96996 18.5299C8.96996 18.5299 7.98665 18.7452 7.46517 19.1165C6.46659 19.8275 6.08876 20.7246 6.05894 20.798L6.05566 20.7984C6.05566 20.7984 6.05712 20.8009 6.05748 20.8017C6.05712 20.8028 6.05603 20.8053 6.05603 20.8053H6.05894C6.09385 20.877 6.5335 21.7454 7.579 22.385C8.1252 22.7188 9.12124 22.865 9.12124 22.865L8.88559 23.2163C8.88559 23.2163 9.19579 23.3581 9.42816 23.4643C9.6609 23.5705 10.3155 23.7574 11.1453 23.4996C11.9755 23.2418 12.293 22.5065 12.293 22.5065C12.293 22.5065 11.3722 22.3479 10.6551 22.0105C9.96564 21.6864 9.92382 20.7435 9.92163 20.6704C9.92163 20.6704 9.92163 20.6675 9.92163 20.6668C9.92163 20.666 9.92163 20.6635 9.92163 20.6635C9.91872 20.5904 9.89436 19.6467 10.5595 19.2754C11.2515 18.8889 12.1588 18.6667 12.1588 18.6667C12.1588 18.6667 11.7908 17.955 10.9449 17.7557C10.0991 17.5564 9.45871 17.7885 9.23433 17.9106Z" fill="#A9258A"/>
<path d="M29.8971 20.7298C29.8971 22.7786 29.1621 24.5565 27.7126 26.0129C26.2555 27.4628 24.4816 28.1977 22.4404 28.1977C20.3916 28.1977 18.6137 27.4628 17.1573 26.0136C15.7074 24.5565 14.9724 22.779 14.9724 20.7298C14.9724 18.6886 15.7074 16.9151 17.1569 15.4579C18.614 14.008 20.3916 13.2731 22.4404 13.2731C24.4816 13.2731 26.2555 14.0084 27.7119 15.4576C29.1621 16.9147 29.8971 18.6886 29.8971 20.7298ZM28.525 14.6459C26.8522 12.9654 24.8052 12.1138 22.4404 12.1138C20.0679 12.1138 18.0169 12.9654 16.3452 14.6452C14.6648 16.318 13.8127 18.3649 13.8127 20.7298C13.8127 23.1022 14.6648 25.1532 16.3449 26.8257C18.0173 28.5054 20.0679 29.3574 22.4404 29.3574C24.8052 29.3574 26.8522 28.5054 28.5243 26.8257C30.2047 25.1532 31.0564 23.1022 31.0564 20.7298C31.0564 18.3649 30.2047 16.318 28.525 14.6459Z" fill="#F89920"/>
<path d="M21.8824 20.1852V21.2784H27.0008C26.8815 22.3693 26.4251 23.2803 25.6109 24.0567C24.7142 24.9163 23.6763 25.3342 22.4381 25.3342C21.1577 25.3342 20.0925 24.8934 19.1827 23.9883C18.2764 23.0777 17.8361 22.0126 17.8361 20.7318C17.8361 19.4565 18.2764 18.3935 19.1816 17.4836C20.0925 16.5774 21.1577 16.137 22.4381 16.137C23.6047 16.137 24.6374 16.5345 25.508 17.3182L25.7229 17.512L26.4986 16.7363L26.2608 16.5214C25.1775 15.541 23.8916 15.0439 22.4381 15.0439C20.8718 15.0439 19.5176 15.6061 18.4146 16.7145C17.3051 17.8189 16.7429 19.1703 16.7429 20.7318C16.7429 22.2984 17.3051 23.6523 18.4135 24.7556C19.5176 25.8647 20.8718 26.4273 22.4381 26.4273C23.9996 26.4273 25.3513 25.8647 26.4546 24.7563C27.5637 23.6523 28.1263 22.298 28.1263 20.7318V20.1852H21.8824Z" fill="#FFCD08"/>
<path d="M140.818 4.65862L129.144 21.699L117.469 4.65862H114.841L128.05 24.0184V36.4211H130.238V24.0398L143.447 4.65862H140.818Z" fill="#A9258A"/>
<path d="M168.075 20.7884C168.075 24.6547 166.688 28.0094 163.953 30.7579C161.203 33.4936 157.855 34.881 154.004 34.881C150.137 34.881 146.782 33.494 144.034 30.759C141.298 28.0098 139.911 24.6551 139.911 20.7884C139.911 16.9366 141.298 13.5895 144.033 10.8396C146.783 8.10382 150.138 6.71721 154.004 6.71721C157.855 6.71721 161.203 8.10454 163.952 10.8388C166.688 13.5891 168.075 16.9366 168.075 20.7884ZM154.004 4.52911C149.526 4.52911 145.656 6.13682 142.501 9.30641C139.331 12.4625 137.723 16.3256 137.723 20.7884C137.723 25.2656 139.331 29.136 142.501 32.2918C145.657 35.4617 149.527 37.0691 154.004 37.0691C158.466 37.0691 162.329 35.4614 165.485 32.2918C168.655 29.136 170.263 25.2656 170.263 20.7884C170.263 16.3256 168.655 12.4625 165.486 9.3075C162.329 6.13682 158.466 4.52911 154.004 4.52911Z" fill="#4D276A"/>
<path d="M203.522 19.6943H186.415V21.8824H201.288C201.025 25.4375 199.576 28.4929 196.979 30.969C194.271 33.5647 191.002 34.8811 187.262 34.8811C183.396 34.8811 180.041 33.4938 177.293 30.7592C174.557 28.0096 173.17 24.6549 173.17 20.7885C173.17 16.9364 174.557 13.589 177.291 10.8405C180.042 8.10436 183.396 6.71703 187.262 6.71703C190.835 6.71703 193.998 7.93417 196.664 10.3346L196.933 10.5768L198.487 9.02258L198.19 8.75384C195.093 5.95045 191.416 4.5293 187.262 4.5293C182.785 4.5293 178.915 6.13664 175.76 9.30623C172.589 12.4624 170.982 16.3258 170.982 20.7885C170.982 25.2658 172.589 29.1362 175.759 32.2905C178.915 35.4615 182.785 37.0689 187.262 37.0689C191.725 37.0689 195.588 35.4615 198.743 32.2919C201.914 29.1362 203.522 25.2658 203.522 20.7885V19.6943Z" fill="#F89920"/>
<path d="M206.24 27.2985L214.786 6.68307L223.332 27.2985H206.24ZM216.315 4.65862H213.257L200.087 36.4211H202.446L205.319 29.4866H224.231L227.104 36.4211H229.463L216.315 4.65862Z" fill="#CBCB2B"/>
<path d="M93.1883 19.8936V22.0817H106.537C106.273 25.6368 104.825 28.6922 102.228 31.1683C99.5199 33.7641 96.2506 35.0805 92.5108 35.0805C88.7318 35.0805 85.4433 33.7517 82.7304 31.1385C82.2951 31.7033 81.8176 32.2495 81.2991 32.7768C84.4007 35.7576 88.1706 37.2682 92.5108 37.2682C96.9736 37.2682 100.837 35.6609 103.992 32.4913C107.162 29.3355 108.77 25.4648 108.77 20.9875V19.8936H93.1883Z" fill="#FFCD08"/>
<path d="M82.5099 11.0712C82.5201 11.0607 82.5295 11.0501 82.5397 11.0396C82.6026 10.9774 82.6673 10.9192 82.7306 10.8581C85.4449 8.2449 88.7331 6.91648 92.5107 6.91648C96.0832 6.91648 99.2463 8.13362 101.912 10.5341L102.181 10.7763L103.736 9.22203L103.438 8.95329C100.341 6.1499 96.6647 4.72839 92.5107 4.72839C88.1701 4.72839 84.3998 6.23936 81.2993 9.22021C81.2262 9.29004 81.1538 9.36204 81.0818 9.43368C81.0575 9.45768 81.0327 9.48132 81.0084 9.50568C80.9604 9.55332 80.9142 9.60168 80.8669 9.65005C80.3469 10.1788 79.8694 10.7276 79.4363 11.2952C79.3738 11.377 79.3123 11.4599 79.2516 11.5429C79.1901 11.6265 79.1297 11.7101 79.0705 11.7945C77.1842 14.471 76.23 17.5515 76.23 20.9876C76.23 24.4358 77.1846 27.5232 79.0708 30.2018C79.6065 29.6305 80.0861 29.0345 80.5043 28.4116C79.1207 26.2166 78.4181 23.7317 78.4181 20.9876C78.4181 18.2537 79.1207 15.7754 80.504 13.5833C80.5629 13.4902 80.6214 13.3971 80.6825 13.3051C80.7422 13.2153 80.8044 13.1262 80.8665 13.0375C81.2891 12.4331 81.7662 11.8523 82.2972 11.2948C82.3681 11.2203 82.4368 11.145 82.5099 11.0712Z" fill="#FFCD08"/>
<path d="M82.6632 11.7946C82.1272 12.3659 81.6475 12.9615 81.2293 13.5837C82.613 15.7758 83.3152 18.2541 83.3152 20.9877C83.3152 23.7318 82.6126 26.217 81.2293 28.412C81.1704 28.5051 81.1118 28.5986 81.0507 28.6906C80.9911 28.7804 80.9289 28.8695 80.8667 28.9582C80.4445 29.563 79.9674 30.1445 79.4365 30.7016C79.3656 30.7761 79.2969 30.8518 79.2238 30.9252C79.2136 30.9358 79.2041 30.9467 79.1936 30.9572C79.131 31.0194 79.0663 31.0776 79.003 31.1383C76.2891 33.7519 73.0082 35.0803 69.2441 35.0803C65.3777 35.0803 62.023 33.693 59.2746 30.9583C56.5388 28.2087 55.1515 24.854 55.1515 20.9877C55.1515 17.1359 56.5384 13.7888 59.2738 11.0389C62.0238 8.30315 65.3784 6.91655 69.2441 6.91655C73.0086 6.91655 76.2898 8.24533 79.0027 10.8582C79.4383 10.2934 79.9154 9.74758 80.4344 9.21992C77.3328 6.23907 73.5701 4.72845 69.2441 4.72845C64.7668 4.72845 60.8964 6.33616 57.7418 9.50575C54.5711 12.6619 52.9634 16.525 52.9634 20.9877C52.9634 25.4646 54.5707 29.3346 57.7414 32.4904C60.8972 35.6607 64.7671 37.2684 69.2441 37.2684C73.5708 37.2684 77.3335 35.7571 80.4344 32.7766C80.5071 32.7064 80.5795 32.6347 80.6518 32.5631C80.6762 32.5387 80.7005 32.5155 80.7249 32.4911C80.7729 32.4435 80.8195 32.3947 80.8667 32.3467C81.3868 31.818 81.8635 31.2692 82.2966 30.7016C82.3595 30.6194 82.4206 30.5365 82.4817 30.4536C82.5428 30.3699 82.6032 30.2859 82.6628 30.2016C84.5491 27.5229 85.5033 24.4355 85.5033 20.9877C85.5033 17.5512 84.5491 14.4703 82.6632 11.7946Z" fill="#F89920"/>
</svg>
