<svg width="20" height="20" viewBox="0 0 20 20" fill="none" xmlns="http://www.w3.org/2000/svg">
<g clip-path="url(#clip0)">
<path d="M9.99992 18.3334C10.9166 18.3334 11.6666 17.5834 11.6666 16.6667H8.33325C8.33325 17.5834 9.07492 18.3334 9.99992 18.3334ZM14.9999 13.3334V9.16671C14.9999 6.60837 13.6333 4.46671 11.2499 3.90004V3.33337C11.2499 2.64171 10.6916 2.08337 9.99992 2.08337C9.30825 2.08337 8.74992 2.64171 8.74992 3.33337V3.90004C6.35825 4.46671 4.99992 6.60004 4.99992 9.16671V13.3334L3.33325 15V15.8334H16.6666V15L14.9999 13.3334Z" fill="#C4C4C4"/>
<line x1="19.3439" y1="2.36298" x2="0.343872" y2="20.363" stroke="#C4C4C4"/>
</g>
<defs>
<clipPath id="clip0">
<rect width="20" height="20" fill="white"/>
</clipPath>
</defs>
</svg>
