<svg width="201" height="265" viewBox="0 0 201 265" fill="none" xmlns="http://www.w3.org/2000/svg">
<path d="M104.87 47.9558C104.87 47.9558 106.79 39.9705 111.738 35.276C116.716 30.5519 119.885 29.2646 119.885 29.2646C119.885 29.2646 117.795 25.7112 117.795 22.0253C117.795 18.3395 120.056 11.5394 120.056 11.5394C120.056 11.5394 113.891 13.8628 110.629 17.4625C107.685 20.7092 106.321 24.3068 106.321 24.3068L105.51 23.649C105.51 23.649 102.311 27.51 102.311 34.3542C102.311 41.1991 104.87 47.9558 104.87 47.9558Z" fill="#CBCB2B"/>
<path d="M136.465 66.7186C136.465 66.7186 142.229 61.0161 143.708 54.2609C145.195 47.4637 144.695 43.9979 144.695 43.9979C144.695 43.9979 148.732 44.0832 151.835 42.2403C154.938 40.3974 159.534 34.9829 159.534 34.9829C159.534 34.9829 160.66 41.6361 159.26 46.3422C157.998 50.5874 155.652 53.6025 155.652 53.6025L156.611 53.9954C156.611 53.9954 154.96 58.7753 149.197 62.1977C143.434 65.6202 136.465 66.7186 136.465 66.7186Z" fill="#CBCB2B"/>
<path d="M104.102 5.44047C102.438 3.3783 99.8792 -3.05176e-05 99.8792 -3.05176e-05C99.8792 -3.05176e-05 97.32 3.3783 95.6563 5.44047C93.9926 7.50263 90.7503 10.7493 90.7503 13.3382C90.7503 15.9264 94.8459 17.6818 97.1062 19.6122C99.3671 21.5427 99.8792 23.9558 99.8792 23.9558C99.8792 23.9558 100.391 21.5427 102.652 19.6122C104.913 17.6818 109.007 15.9264 109.007 13.3382C109.007 10.7493 105.766 7.50263 104.102 5.44047Z" fill="#F89821"/>
<path d="M155.522 19.5142L153.549 20.572C153.549 20.572 153.721 14.9999 152.676 11.9471C151.632 8.89513 149.995 5.49147 149.995 5.49147C149.995 5.49147 146.312 5.73604 143.219 6.33154C140.126 6.92703 135.522 9.86616 135.522 9.86616L135.425 7.58041C135.425 7.58041 128.225 11.1063 125.495 15.9702C122.765 20.8333 125.261 28.4965 125.261 28.4965C125.261 28.4965 127.854 25.9836 132.39 24.2188C136.927 22.4548 139.417 24.3382 139.417 24.3382C139.417 24.3382 142.247 25.6139 143.03 30.537C143.813 35.4602 142.993 39.0266 142.993 39.0266C142.993 39.0266 150.693 37.4181 153.423 32.555C156.153 27.6912 155.522 19.5142 155.522 19.5142Z" fill="#FFCD08"/>
<path d="M139.88 49.1348C139.949 47.9597 140.04 46.3925 140.04 46.3925L138.156 46.5907C138.156 46.5907 139.672 42.2262 139.5 39.2827C139.169 33.649 136.66 29.9834 136.451 29.6868L136.458 29.6745C136.458 29.6745 136.445 29.673 136.441 29.6723C136.438 29.6694 136.431 29.6578 136.431 29.6578L136.424 29.6709C136.069 29.6325 131.728 29.2302 126.819 31.7526C124.255 33.0702 121.338 36.6033 121.338 36.6033L120.563 34.8263C120.563 34.8263 119.289 35.6909 118.334 36.3392C117.379 36.9883 115.116 39.0895 114.126 42.9599C113.135 46.8302 115.175 49.8649 115.175 49.8649C115.175 49.8649 117.961 46.6559 120.943 44.6776C123.81 42.7768 127.489 44.915 127.771 45.085C127.771 45.085 127.782 45.0915 127.785 45.0929C127.788 45.0944 127.798 45.1009 127.798 45.1009C128.083 45.2681 131.723 47.4757 131.555 50.9799C131.38 54.6252 130.072 58.7119 130.072 58.7119C130.072 58.7119 133.647 59.0107 136.411 56.1939C139.174 53.3763 139.812 50.3099 139.88 49.1348Z" fill="#A9258A"/>
<path d="M94.6547 47.9558C94.6547 47.9558 92.7349 39.9705 87.7867 35.276C82.8083 30.5519 79.6399 29.2646 79.6399 29.2646C79.6399 29.2646 81.7299 25.7112 81.7299 22.0253C81.7299 18.3395 79.4689 11.5394 79.4689 11.5394C79.4689 11.5394 85.6334 13.8628 88.8961 17.4625C91.8394 20.7092 93.2041 24.3068 93.2041 24.3068L94.0145 23.649C94.0145 23.649 97.2139 27.51 97.2139 34.3542C97.2139 41.1991 94.6547 47.9558 94.6547 47.9558Z" fill="#CBCB2B"/>
<path d="M63.0593 66.7186C63.0593 66.7186 57.2958 61.0161 55.8171 54.2609C54.3293 47.4637 54.8295 43.9979 54.8295 43.9979C54.8295 43.9979 50.7922 44.0832 47.6892 42.2403C44.5862 40.3974 39.9905 34.9829 39.9905 34.9829C39.9905 34.9829 38.8649 41.6361 40.2641 46.3422C41.5262 50.5874 43.8729 53.6025 43.8729 53.6025L42.9134 53.9954C42.9134 53.9954 44.5644 58.7753 50.328 62.1977C56.0908 65.6202 63.0593 66.7186 63.0593 66.7186Z" fill="#CBCB2B"/>
<path d="M44.0028 19.5142L45.9753 20.572C45.9753 20.572 45.8037 14.9999 46.8483 11.9471C47.893 8.89513 49.5292 5.49147 49.5292 5.49147C49.5292 5.49147 53.2126 5.73604 56.3057 6.33154C59.3982 6.92703 64.0031 9.86616 64.0031 9.86616L64.0995 7.58041C64.0995 7.58041 71.2995 11.1063 74.0296 15.9702C76.7598 20.8333 74.2639 28.4965 74.2639 28.4965C74.2639 28.4965 71.6709 25.9836 67.1342 24.2188C62.5976 22.4548 60.108 24.3382 60.108 24.3382C60.108 24.3382 57.2779 25.6139 56.495 30.537C55.712 35.4602 56.5316 39.0266 56.5316 39.0266C56.5316 39.0266 48.8314 37.4181 46.1012 32.555C43.3718 27.6912 44.0028 19.5142 44.0028 19.5142Z" fill="#FFCD08"/>
<path d="M59.644 49.1348C59.5758 47.9597 59.4843 46.3925 59.4843 46.3925L61.3682 46.5907C61.3682 46.5907 59.8522 42.2262 60.0246 39.2827C60.3552 33.649 62.8645 29.9834 63.0734 29.6868L63.0664 29.6745C63.0664 29.6745 63.0797 29.673 63.084 29.6723C63.0861 29.6694 63.0938 29.6578 63.0938 29.6578L63.1008 29.6709C63.4554 29.6325 67.7965 29.2302 72.7053 31.7526C75.2695 33.0702 78.186 36.6033 78.186 36.6033L78.962 34.8263C78.962 34.8263 80.2352 35.6909 81.1906 36.3392C82.1459 36.9883 84.4089 39.0895 85.3987 42.9599C86.3892 46.8302 84.3498 49.8649 84.3498 49.8649C84.3498 49.8649 81.5634 46.6559 78.5814 44.6776C75.7148 42.7768 72.0356 44.915 71.7535 45.085C71.7535 45.085 71.7423 45.0915 71.7394 45.0929C71.7366 45.0944 71.7261 45.1009 71.7261 45.1009C71.4419 45.2681 67.8014 47.4757 67.9696 50.9799C68.144 54.6252 69.4525 58.7119 69.4525 58.7119C69.4525 58.7119 65.8774 59.0107 63.1135 56.1939C60.3503 53.3763 59.7129 50.3099 59.644 49.1348Z" fill="#A9258A"/>
<path d="M106.235 143.018C106.235 143.018 108.155 151.003 113.103 155.698C118.081 160.422 121.25 161.709 121.25 161.709C121.25 161.709 119.16 165.263 119.16 168.948C119.16 172.634 121.421 179.434 121.421 179.434C121.421 179.434 115.256 177.111 111.994 173.511C109.05 170.265 107.685 166.667 107.685 166.667L106.875 167.325C106.875 167.325 103.676 163.464 103.676 156.62C103.676 149.775 106.235 143.018 106.235 143.018Z" fill="#CBCB2B"/>
<path d="M137.83 124.255C137.83 124.255 143.594 129.958 145.073 136.713C146.56 143.51 146.06 146.976 146.06 146.976C146.06 146.976 150.097 146.891 153.2 148.734C156.303 150.576 160.899 155.991 160.899 155.991C160.899 155.991 162.025 149.338 160.625 144.632C159.363 140.386 157.017 137.371 157.017 137.371L157.976 136.978C157.976 136.978 156.325 132.199 150.562 128.776C144.799 125.354 137.83 124.255 137.83 124.255Z" fill="#CBCB2B"/>
<path d="M105.467 185.533C103.803 187.596 101.244 190.974 101.244 190.974C101.244 190.974 98.685 187.596 97.0213 185.533C95.3576 183.471 92.1154 180.225 92.1154 177.636C92.1154 175.047 96.2109 173.292 98.4712 171.362C100.732 169.431 101.244 167.018 101.244 167.018C101.244 167.018 101.756 169.431 104.017 171.362C106.278 173.292 110.372 175.047 110.372 177.636C110.372 180.225 107.131 183.471 105.467 185.533Z" fill="#F89821"/>
<path d="M156.887 171.46L154.914 170.402C154.914 170.402 155.086 175.974 154.041 179.027C152.997 182.079 151.36 185.482 151.36 185.482C151.36 185.482 147.677 185.238 144.584 184.642C141.491 184.047 136.887 181.108 136.887 181.108L136.79 183.393C136.79 183.393 129.59 179.868 126.86 175.004C124.13 170.141 126.626 162.477 126.626 162.477C126.626 162.477 129.219 164.99 133.755 166.755C138.292 168.519 140.782 166.636 140.782 166.636C140.782 166.636 143.612 165.36 144.395 160.437C145.178 155.514 144.358 151.947 144.358 151.947C144.358 151.947 152.058 153.556 154.788 158.419C157.518 163.283 156.887 171.46 156.887 171.46Z" fill="#FFCD08"/>
<path d="M141.246 141.839C141.314 143.014 141.405 144.581 141.405 144.581L139.521 144.383C139.521 144.383 141.037 148.748 140.865 151.691C140.534 157.325 138.025 160.99 137.816 161.287L137.823 161.299C137.823 161.299 137.81 161.301 137.806 161.301C137.803 161.304 137.796 161.316 137.796 161.316L137.789 161.303C137.434 161.341 133.093 161.744 128.184 159.221C125.62 157.904 122.704 154.37 122.704 154.37L121.928 156.148C121.928 156.148 120.654 155.283 119.699 154.635C118.744 153.985 116.481 151.884 115.491 148.014C114.5 144.144 116.54 141.109 116.54 141.109C116.54 141.109 119.326 144.318 122.308 146.296C125.175 148.197 128.854 146.059 129.136 145.889C129.136 145.889 129.147 145.882 129.15 145.881C129.153 145.879 129.163 145.873 129.163 145.873C129.448 145.706 133.088 143.498 132.92 139.994C132.746 136.349 131.437 132.262 131.437 132.262C131.437 132.262 135.012 131.963 137.776 134.78C140.539 137.597 141.177 140.664 141.246 141.839Z" fill="#A9258A"/>
<path d="M96.0197 143.018C96.0197 143.018 94.0999 151.003 89.1518 155.698C84.1733 160.422 81.0049 161.709 81.0049 161.709C81.0049 161.709 83.0949 165.263 83.0949 168.948C83.0949 172.634 80.834 179.434 80.834 179.434C80.834 179.434 86.9985 177.111 90.2611 173.511C93.2044 170.265 94.5692 166.667 94.5692 166.667L95.3796 167.325C95.3796 167.325 98.5789 163.464 98.5789 156.62C98.5789 149.775 96.0197 143.018 96.0197 143.018Z" fill="#CBCB2B"/>
<path d="M64.4244 124.255C64.4244 124.255 58.6609 129.958 57.1822 136.713C55.6943 143.51 56.1945 146.976 56.1945 146.976C56.1945 146.976 52.1573 146.891 49.0543 148.734C45.9513 150.576 41.3555 155.991 41.3555 155.991C41.3555 155.991 40.23 149.338 41.6292 144.632C42.8912 140.386 45.238 137.371 45.238 137.371L44.2785 136.978C44.2785 136.978 45.9295 132.199 51.693 128.776C57.4558 125.354 64.4244 124.255 64.4244 124.255Z" fill="#CBCB2B"/>
<path d="M45.3677 171.46L47.3402 170.402C47.3402 170.402 47.1686 175.974 48.2132 179.027C49.2579 182.079 50.8942 185.482 50.8942 185.482C50.8942 185.482 54.5775 185.238 57.6707 184.642C60.7631 184.047 65.368 181.108 65.368 181.108L65.4644 183.393C65.4644 183.393 72.6644 179.868 75.3946 175.004C78.1247 170.141 75.6288 162.477 75.6288 162.477C75.6288 162.477 73.0358 164.99 68.4992 166.755C63.9625 168.519 61.4729 166.636 61.4729 166.636C61.4729 166.636 58.6429 165.36 57.8599 160.437C57.0769 155.514 57.8965 151.947 57.8965 151.947C57.8965 151.947 50.1963 153.556 47.4662 158.419C44.7367 163.283 45.3677 171.46 45.3677 171.46Z" fill="#FFCD08"/>
<path d="M61.0091 141.839C60.9408 143.014 60.8494 144.581 60.8494 144.581L62.7333 144.383C62.7333 144.383 61.2173 148.748 61.3896 151.691C61.7203 157.325 64.2295 160.99 64.4385 161.287L64.4314 161.299C64.4314 161.299 64.4448 161.301 64.449 161.301C64.4511 161.304 64.4589 161.316 64.4589 161.316L64.4659 161.303C64.8204 161.341 69.1616 161.744 74.0704 159.221C76.6345 157.904 79.5511 154.37 79.5511 154.37L80.327 156.148C80.327 156.148 81.6003 155.283 82.5556 154.635C83.5109 153.985 85.774 151.884 86.7638 148.014C87.7542 144.144 85.7149 141.109 85.7149 141.109C85.7149 141.109 82.9284 144.318 79.9464 146.296C77.0798 148.197 73.4007 146.059 73.1186 145.889C73.1186 145.889 73.1073 145.882 73.1045 145.881C73.1017 145.879 73.0911 145.873 73.0911 145.873C72.8069 145.706 69.1665 143.498 69.3346 139.994C69.5091 136.349 70.8175 132.262 70.8175 132.262C70.8175 132.262 67.2425 131.963 64.4786 134.78C61.7153 137.597 61.078 140.664 61.0091 141.839Z" fill="#A9258A"/>
<path d="M173.374 142.306C175.956 141.948 180.098 141.505 180.098 141.505C180.098 141.505 178.668 137.483 177.849 134.939C177.031 132.395 176.072 127.847 173.937 126.475C171.803 125.104 168.187 127.745 165.397 128.695C162.607 129.643 160.346 128.811 160.346 128.811C160.346 128.811 162.064 130.536 162.458 133.532C162.852 136.527 162.128 141.029 164.263 142.401C166.397 143.772 170.792 142.665 173.374 142.306Z" fill="#F89821"/>
<path d="M141.962 112.94C141.962 112.94 149.563 115.497 156.056 113.669C162.589 111.829 165.329 109.747 165.329 109.747C165.329 109.747 167.151 113.454 170.19 115.407C173.229 117.36 180.034 118.991 180.034 118.991C180.034 118.991 174.852 123.137 170.155 124.076C165.918 124.922 162.229 124.207 162.229 124.207L162.342 125.262C162.342 125.262 157.463 126.007 151.819 122.381C146.176 118.753 141.962 112.94 141.962 112.94Z" fill="#CBCB2B"/>
<path d="M143.235 75.4375C143.235 75.4375 150.99 73.4318 157.343 75.7218C163.736 78.0257 166.329 80.2991 166.329 80.2991C166.329 80.2991 168.398 76.7319 171.562 75.0019C174.725 73.2718 181.625 72.1322 181.625 72.1322C181.625 72.1322 176.736 67.6244 172.114 66.3516C167.945 65.2026 164.216 65.652 164.216 65.652L164.4 64.6071C164.4 64.6071 159.584 63.5138 153.708 66.7272C147.833 69.9413 143.235 75.4375 143.235 75.4375Z" fill="#CBCB2B"/>
<path d="M192.253 83.829L190.335 84.9896C190.335 84.9896 195.021 87.792 196.983 90.3208C198.946 92.8497 200.886 96.0804 200.886 96.0804C200.886 96.0804 198.732 99.1643 196.602 101.546C194.473 103.928 189.609 106.388 189.609 106.388L191.443 107.683C191.443 107.683 184.72 112.095 179.263 111.899C173.806 111.703 168.811 105.465 168.811 105.465C168.811 105.465 172.257 104.535 176.116 101.513C179.974 98.4906 179.741 95.3214 179.741 95.3214C179.741 95.3214 180.189 92.1761 176.545 88.8846C172.9 85.5923 169.526 84.418 169.526 84.418C169.526 84.418 174.932 78.5535 180.389 78.7496C185.845 78.9449 192.253 83.829 192.253 83.829Z" fill="#FFCD08"/>
<path d="M159.542 81.7762C160.547 82.3392 161.887 83.0895 161.887 83.0895L160.726 84.6285C160.726 84.6285 165.128 85.6191 167.463 87.3289C171.934 90.603 173.625 94.7339 173.759 95.0732L173.773 95.0739C173.773 95.0739 173.768 95.0862 173.766 95.0899C173.768 95.0935 173.772 95.1065 173.772 95.1065H173.758C173.601 95.4357 171.633 99.4349 166.952 102.381C164.507 103.919 160.048 104.591 160.048 104.591L161.103 106.209C161.103 106.209 159.715 106.862 158.674 107.351C157.633 107.841 154.701 108.701 150.986 107.514C147.27 106.327 145.848 102.939 145.848 102.939C145.848 102.939 149.971 102.21 153.182 100.656C156.268 99.1635 156.454 94.8214 156.464 94.485C156.464 94.485 156.465 94.4727 156.465 94.469C156.465 94.4654 156.466 94.4524 156.466 94.4524C156.478 94.1167 156.587 89.7709 153.609 88.0604C150.511 86.2812 146.448 85.2573 146.448 85.2573C146.448 85.2573 148.096 81.9795 151.883 81.0621C155.671 80.1446 158.537 81.2133 159.542 81.7762Z" fill="#A9258A"/>
<path d="M26.929 143.665C24.4606 142.807 20.4768 141.562 20.4768 141.562C20.4768 141.562 22.6238 137.893 23.8985 135.556C25.1732 133.218 26.9565 128.941 29.3053 128.012C31.6542 127.083 34.7164 130.386 37.2799 131.863C39.8426 133.341 42.2161 132.967 42.2161 132.967C42.2161 132.967 40.2098 134.324 39.2693 137.187C38.3288 140.05 38.2049 144.612 35.8561 145.541C33.5072 146.469 29.3975 144.522 26.929 143.665Z" fill="#F89821"/>
<path d="M21.1608 55.2317C20.005 52.8301 18.0438 49.0524 18.0438 49.0524C18.0438 49.0524 22.0845 48.0191 24.5923 47.2934C27.1002 46.5684 31.302 44.8405 33.6016 45.8919C35.9012 46.9439 35.7964 51.506 36.5928 54.4148C37.3891 57.3242 39.325 58.7858 39.325 58.7858C39.325 58.7858 36.9733 58.2866 34.3396 59.6266C31.7058 60.9674 28.4832 64.1026 26.1836 63.0513C23.8839 61.9992 22.3166 57.6332 21.1608 55.2317Z" fill="#F89821"/>
<path d="M176.122 55.2317C177.278 52.8301 179.239 49.0524 179.239 49.0524C179.239 49.0524 175.198 48.0191 172.69 47.2934C170.182 46.5684 165.981 44.8405 163.681 45.8919C161.381 46.9439 161.486 51.506 160.69 54.4148C159.893 57.3242 157.958 58.7858 157.958 58.7858C157.958 58.7858 160.309 58.2866 162.943 59.6266C165.577 60.9674 168.799 64.1026 171.099 63.0513C173.399 61.9992 174.966 57.6332 176.122 55.2317Z" fill="#F89821"/>
<path d="M58.924 113.642C58.924 113.642 51.323 116.199 44.83 114.371C38.2969 112.531 35.5569 110.449 35.5569 110.449C35.5569 110.449 33.7342 114.156 30.6952 116.109C27.6569 118.062 20.8516 119.693 20.8516 119.693C20.8516 119.693 26.034 123.839 30.7304 124.778C34.9674 125.624 38.657 124.909 38.657 124.909L38.5438 125.965C38.5438 125.965 43.4223 126.709 49.0663 123.083C54.7095 119.455 58.924 113.642 58.924 113.642Z" fill="#CBCB2B"/>
<path d="M57.6511 76.1394C57.6511 76.1394 49.8953 74.1337 43.5423 76.4238C37.1492 78.7276 34.5569 81.0011 34.5569 81.0011C34.5569 81.0011 32.488 77.4339 29.3238 75.7039C26.1603 73.9738 19.2607 72.8342 19.2607 72.8342C19.2607 72.8342 24.1498 68.3264 28.7716 67.0536C32.9403 65.9046 36.6694 66.3539 36.6694 66.3539L36.4851 65.3091C36.4851 65.3091 41.3018 64.2158 47.1771 67.4299C53.0525 70.6432 57.6511 76.1394 57.6511 76.1394Z" fill="#CBCB2B"/>
<path d="M8.63297 84.531L10.5506 85.6916C10.5506 85.6916 5.86482 88.494 3.90214 91.0228C1.93946 93.5517 0 96.7824 0 96.7824C0 96.7824 2.15332 99.8663 4.28342 102.248C6.41282 104.63 11.2766 107.09 11.2766 107.09L9.44266 108.385C9.44266 108.385 16.1657 112.797 21.6225 112.601C27.0793 112.405 32.0746 106.167 32.0746 106.167C32.0746 106.167 28.6284 105.237 24.7698 102.215C20.9113 99.1926 21.1449 96.0234 21.1449 96.0234C21.1449 96.0234 20.6967 92.8781 24.3414 89.5866C27.9854 86.2943 31.3599 85.12 31.3599 85.12C31.3599 85.12 25.9538 79.2555 20.497 79.4516C15.0402 79.6469 8.63297 84.531 8.63297 84.531Z" fill="#FFCD08"/>
<path d="M41.3436 82.4782C40.3383 83.0411 38.9982 83.7915 38.9982 83.7915L40.1596 85.3305C40.1596 85.3305 35.7573 86.3211 33.4225 88.0308C28.952 91.305 27.2602 95.4358 27.1265 95.7752L27.1124 95.7759C27.1124 95.7759 27.1181 95.7882 27.1195 95.7918C27.1181 95.7954 27.1131 95.8085 27.1131 95.8085H27.1272C27.2841 96.1377 29.2524 100.137 33.9333 103.082C36.3785 104.621 40.8378 105.293 40.8378 105.293L39.7826 106.911C39.7826 106.911 41.1705 107.564 42.2117 108.053C43.2528 108.543 46.1841 109.403 49.8999 108.216C53.6156 107.029 55.0373 103.641 55.0373 103.641C55.0373 103.641 50.915 102.912 47.7036 101.358C44.6175 99.8655 44.4311 95.5234 44.4213 95.1869C44.4213 95.1869 44.4206 95.1746 44.4206 95.171C44.4206 95.1674 44.4199 95.1544 44.4199 95.1544C44.4072 94.8186 44.2989 90.4729 47.2766 88.7624C50.3747 86.9831 54.4372 85.9593 54.4372 85.9593C54.4372 85.9593 52.7897 82.6815 49.0022 81.764C45.2148 80.8465 42.3488 81.9153 41.3436 82.4782Z" fill="#A9258A"/>
<path d="M133.853 95.4607C133.853 104.896 130.561 113.082 124.073 119.79C117.549 126.466 109.607 129.852 100.468 129.852C91.2949 129.852 83.3359 126.466 76.8154 119.793C70.3238 113.083 67.033 104.897 67.033 95.4607C67.033 86.0616 70.3231 77.8939 76.814 71.1829C83.338 64.5072 91.2963 61.1224 100.468 61.1224C109.606 61.1224 117.548 64.5079 124.07 71.1814C130.561 77.8925 133.853 86.0616 133.853 95.4607ZM127.71 67.4442C120.221 59.7064 111.055 55.7832 100.468 55.7832C89.8465 55.7832 80.6641 59.7064 73.1785 67.4413C65.6563 75.1437 61.8421 84.571 61.8421 95.4607C61.8421 106.386 65.6556 115.831 73.1771 123.531C80.6648 131.269 89.8472 135.19 100.468 135.19C111.056 135.19 120.221 131.268 127.706 123.533C135.229 115.831 139.044 106.387 139.044 95.4607C139.044 84.571 135.229 75.1437 127.71 67.4442Z" fill="#F89920"/>
<path d="M97.9709 92.953V97.9868H120.887C120.352 103.01 118.309 107.207 114.664 110.78C110.65 114.739 106.003 116.664 100.459 116.664C94.7258 116.664 89.957 114.635 85.8839 110.466C81.8263 106.272 79.8545 101.367 79.8545 95.4703C79.8545 89.5963 81.8263 84.7021 85.879 80.512C89.957 76.3392 94.7265 74.3103 100.459 74.3103C105.681 74.3103 110.305 76.1409 114.203 79.7508L115.166 80.6422L118.638 77.0714L117.574 76.0808C112.723 71.5658 106.965 69.2764 100.459 69.2764C93.4462 69.2764 87.3837 71.8661 82.4447 76.9701C77.4782 82.0553 74.9604 88.2795 74.9604 95.4703C74.9604 102.684 77.4782 108.919 82.4404 113.999C87.3837 119.107 93.4469 121.697 100.459 121.697C107.449 121.697 113.501 119.107 118.441 114.003C123.408 108.918 125.925 102.683 125.925 95.4703V92.953H97.9709Z" fill="#FFCD08"/>
<path d="M52.0245 206.96L31.3693 237.971L10.714 206.96H6.06201L29.4333 242.192V264.763H33.3045V242.231L56.6751 206.96H52.0245Z" fill="#A9258A"/>
<path d="M154.017 248.161L169.137 210.644L184.257 248.161H154.017ZM171.843 206.96H166.431L143.13 264.763H147.304L152.387 252.143H185.848L190.932 264.763H195.105L171.843 206.96Z" fill="#CBCB2B"/>
<path d="M120.409 233.143V237.125H144.026C143.56 243.595 140.998 249.155 136.403 253.661C131.612 258.385 125.827 260.781 119.211 260.781C112.525 260.781 106.706 258.362 101.906 253.607C101.136 254.635 100.292 255.629 99.3735 256.588C104.861 262.013 111.532 264.763 119.211 264.763C127.106 264.763 133.941 261.837 139.524 256.069C145.133 250.326 147.978 243.282 147.978 235.134V233.143H120.409Z" fill="#FFCD08"/>
<path d="M101.516 217.088C101.534 217.069 101.55 217.049 101.569 217.03C101.68 216.917 101.794 216.811 101.906 216.7C106.709 211.944 112.527 209.526 119.211 209.526C125.531 209.526 131.128 211.742 135.844 216.11L136.321 216.551L139.07 213.722L138.545 213.233C133.065 208.131 126.56 205.544 119.211 205.544C111.53 205.544 104.86 208.295 99.3738 213.719C99.2444 213.847 99.117 213.977 98.989 214.107C98.9461 214.151 98.9025 214.194 98.8596 214.238C98.7745 214.325 98.6922 214.413 98.6084 214.501C97.6883 215.464 96.8441 216.462 96.0781 217.495C95.9669 217.645 95.8586 217.795 95.751 217.946C95.6426 218.098 95.5357 218.25 95.4302 218.404C92.0936 223.275 90.4046 228.88 90.4046 235.134C90.4046 241.409 92.0936 247.028 95.4309 251.903C96.3792 250.863 97.2275 249.778 97.9669 248.645C95.5188 244.65 94.2765 240.128 94.2765 235.134C94.2765 230.159 95.5188 225.648 97.9669 221.659C98.071 221.49 98.1744 221.32 98.2827 221.153C98.3883 220.989 98.4987 220.828 98.6084 220.666C99.3555 219.566 100.2 218.509 101.14 217.495C101.265 217.359 101.387 217.221 101.516 217.088Z" fill="#FFCD08"/>
<path d="M101.787 218.404C100.839 219.444 99.9897 220.528 99.2504 221.66C101.698 225.65 102.941 230.159 102.941 235.134C102.941 240.128 101.698 244.651 99.2497 248.645C99.1463 248.815 99.0421 248.985 98.9345 249.153C98.8283 249.316 98.7185 249.478 98.6088 249.64C97.8617 250.74 97.0169 251.798 96.0784 252.812C95.9525 252.948 95.8308 253.085 95.7021 253.219C95.6831 253.239 95.6669 253.258 95.6479 253.277C95.5375 253.391 95.4228 253.496 95.3109 253.607C90.5091 258.364 84.7047 260.781 78.045 260.781C71.2038 260.781 65.2679 258.257 60.4055 253.28C55.5649 248.276 53.1098 242.17 53.1098 235.134C53.1098 228.124 55.5642 222.033 60.4041 217.029C65.27 212.05 71.2045 209.527 78.045 209.527C84.7047 209.527 90.5105 211.945 95.3109 216.7C96.0812 215.672 96.9254 214.678 97.8434 213.719C92.3557 208.294 85.6987 205.544 78.045 205.544C70.1232 205.544 63.275 208.47 57.6936 214.238C52.0835 219.982 49.2386 227.013 49.2386 235.134C49.2386 243.282 52.0828 250.325 57.6922 256.068C63.2764 261.837 70.1232 264.763 78.045 264.763C85.6994 264.763 92.3578 262.013 97.8434 256.589C97.9722 256.461 98.1002 256.33 98.2282 256.199C98.2711 256.156 98.3148 256.113 98.3577 256.069C98.4428 255.982 98.5251 255.893 98.6088 255.806C99.5282 254.844 100.372 253.846 101.138 252.812C101.25 252.662 101.358 252.511 101.466 252.361C101.574 252.208 101.681 252.056 101.786 251.902C105.124 247.028 106.812 241.408 106.812 235.134C106.812 228.88 105.124 223.274 101.787 218.404Z" fill="#F89920"/>
</svg>
